<?xml version="1.0" encoding="utf-8"?>
<!-- Generator: Adobe Illustrator 19.2.1, SVG Export Plug-In . SVG Version: 6.00 Build 0)  -->
<svg version="1.1" id="Calque_1" xmlns:sketch="http://www.bohemiancoding.com/sketch/ns"
	 xmlns="http://www.w3.org/2000/svg" xmlns:xlink="http://www.w3.org/1999/xlink" x="0px" y="0px" width="512px" height="512px"
	 viewBox="0 0 512 512" enable-background="new 0 0 512 512" xml:space="preserve">
<title>close</title>
<desc>Created with Sketch.</desc>
<g id="Page-1" sketch:type="MSPage">
	<g id="close" sketch:type="MSArtboardGroup">
		<path id="Shape" sketch:type="MSShapeGroup" d="M256,199.4L397.7,57.7c15.6-15.6,40.9-15.6,56.6,0s15.6,40.9,0,56.6L312.6,256
			l141.7,141.7c15.6,15.6,15.6,40.9,0,56.6s-40.9,15.6-56.6,0L256,312.5L114.3,454.3c-15.6,15.6-40.9,15.6-56.6,0s-15.6-40.9,0-56.6
			L199.4,256L57.7,114.2c-15.6-15.6-15.6-40.9,0-56.6s40.9-15.6,56.6,0L256,199.4z"/>
	</g>
</g>
</svg>
