<?xml version="1.0" encoding="utf-8"?>
<!-- Generator: Adobe Illustrator 19.2.1, SVG Export Plug-In . SVG Version: 6.00 Build 0)  -->
<svg version="1.1" id="Calque_1" xmlns:sketch="http://www.bohemiancoding.com/sketch/ns"
	 xmlns="http://www.w3.org/2000/svg" xmlns:xlink="http://www.w3.org/1999/xlink" x="0px" y="0px" width="512px" height="512px"
	 viewBox="0 0 512 512" enable-background="new 0 0 512 512" xml:space="preserve">
<title>facebook</title>
<desc>Created with Sketch.</desc>
<g id="Page-1" sketch:type="MSPage">
	<g id="facebook" sketch:type="MSArtboardGroup">
		<g id="Shape" transform="translate(26.000000, 26.000000)" sketch:type="MSLayerGroup">
			<path sketch:type="MSShapeGroup" fill="#010202" d="M433.7,0H25.3C11.4,0,0,11.4,0,25.4v409.2c0,14,11.4,25.4,25.3,25.4h219.9
				V281.9h-59.9v-69.5h59.9v-51.2c0-59.4,36.2-91.7,89.2-91.7c25.3,0,47.1,1.9,53.4,2.8v62h-36.7c-28.7,0-34.3,13.7-34.3,33.8v44.3
				h68.6l-8.9,69.5h-59.7V460h117c14,0,25.3-11.4,25.3-25.4V25.4C459.1,11.4,447.7,0,433.7,0L433.7,0z"/>
		</g>
	</g>
</g>
</svg>
