<?xml version="1.0" encoding="utf-8"?>
<!-- Generator: Adobe Illustrator 19.2.1, SVG Export Plug-In . SVG Version: 6.00 Build 0)  -->
<svg version="1.1" id="Calque_1" xmlns:sketch="http://www.bohemiancoding.com/sketch/ns"
	 xmlns="http://www.w3.org/2000/svg" xmlns:xlink="http://www.w3.org/1999/xlink" x="0px" y="0px" width="512px" height="512px"
	 viewBox="0 0 512 512" enable-background="new 0 0 512 512" xml:space="preserve">
<title>github</title>
<desc>Created with Sketch.</desc>
<g id="Page-1" sketch:type="MSPage">
	<g id="github" sketch:type="MSArtboardGroup">
		<g id="Shape" transform="translate(26.000000, 31.000000)" sketch:type="MSLayerGroup">
			<path sketch:type="MSShapeGroup" fill="#231E1B" d="M230,0C102.9,0,0,103,0,230.2c0,101.7,65.9,188,157.3,218.4
				c11.5,2.1,15.7-5,15.7-11.1c0-5.4-0.2-20-0.3-39.1c-63.9,13.9-77.5-30.8-77.5-30.8c-10.5-26.6-25.6-33.7-25.6-33.7
				c-20.9-14.3,1.6-14,1.6-14c23.1,1.7,35.2,23.7,35.2,23.7c20.5,35.1,53.8,25,67,19.1c2.1-14.9,8-25,14.6-30.7
				C137,326,83.3,306.4,83.3,218.1c0-25.1,8.9-45.6,23.6-61.7c-2.4-5.8-10.2-29.3,2.3-60.9c0,0,19.3-6.2,63.2,23.6
				c18.3-5.1,38-7.6,57.6-7.7c19.5,0.1,39.2,2.7,57.6,7.7c43.9-29.8,63.2-23.6,63.2-23.6c12.5,31.6,4.7,55.1,2.3,60.9
				c14.7,16.1,23.6,36.6,23.6,61.7c0,88.4-53.8,107.9-105,113.6c8.3,7.1,15.6,21.2,15.6,42.6c0,30.7-0.3,55.6-0.3,63.1
				c0,6.2,4.1,13.3,15.8,11c91.2-30.5,157-116.7,157-218.3C460,103,357.1,0,230,0L230,0z"/>
		</g>
	</g>
</g>
</svg>
