<?xml version="1.0" encoding="utf-8"?>
<!-- Generator: Adobe Illustrator 19.2.1, SVG Export Plug-In . SVG Version: 6.00 Build 0)  -->
<svg version="1.1" id="Calque_1" xmlns:sketch="http://www.bohemiancoding.com/sketch/ns"
	 xmlns="http://www.w3.org/2000/svg" xmlns:xlink="http://www.w3.org/1999/xlink" x="0px" y="0px" width="512px" height="512px"
	 viewBox="0 0 512 512" enable-background="new 0 0 512 512" xml:space="preserve">
<title>google-plus</title>
<desc>Created with Sketch.</desc>
<g id="Page-1" sketch:type="MSPage">
	<g id="google-plus" sketch:type="MSArtboardGroup">
		<g id="Group" transform="translate(26.000000, 26.000000)" sketch:type="MSLayerGroup">
			<g sketch:type="MSShapeGroup">
				<path id="Shape" fill="#010202" d="M204.1,269.4c-3.2-0.4-5.3-0.4-9.4-0.4c-3.7,0-25.8,0.8-42.9,6.4c-9,3.2-35.1,12.9-35.1,41.3
					c0,28.6,28.2,49,71.9,49c39.2,0,60.1-18.5,60.1-43.3C248.7,301.9,235.2,291.1,204.1,269.4L204.1,269.4z"/>
				<path id="Shape_1_" fill="#010202" d="M226.2,164.7c0-28.9-17.6-73.9-51.4-73.9c-10.7,0-22.1,4.2-28.6,12.2
					c-6.9,8.4-9,20.3-9,30.8c0,26.9,15.9,71.4,51.1,71.4c10.2,0,21.3-5.8,27.8-12.2C225.4,183.8,226.2,172,226.2,164.7L226.2,164.7z
					"/>
				<path id="Shape_2_" fill="#010202" d="M436.1,0H23.9C11.1,0.2,0.8,10.1,0,22.6v413.9c0.7,12.1,10.5,21.9,22.7,22.6h414.6
					c12.7-0.7,22.7-11.3,22.7-24.1V24.1C460,10.9,449.3,0.2,436.1,0L436.1,0z M167.4,382.9c-59.2,0-86.7-28-86.7-57.8
					c0-14.5,7.4-34.9,31.5-49c25.3-15.2,59.6-17.3,78-18.5c-5.7-7.3-12.2-14.9-12.2-27.3c0-6.8,2-10.8,4-15.7
					c-4.5,0.4-9,0.8-13.1,0.8c-43.2,0-67.8-31.8-67.8-63c0-18.5,5.8-40.3,23.3-55.2c23.4-18.8,53.1-21.1,75.2-21.1h85.1l-26.4,16.2
					h-24.2c9.4,7.6,28,22.4,28,52.9c0,29.7-17.1,43.8-34.3,57c-5.3,5.2-11.4,10.8-11.4,19.6c0,8.8,6.2,13.7,10.6,17.3l14.7,11.2
					c17.9,14.9,34.3,28.6,34.3,56.3C276,344.5,237.7,382.9,167.4,382.9L167.4,382.9z M386.3,232.3h-40.4v40.3h-20.7v-40.3h-40.4
					v-19.7h40.4v-40.3h20.7v40.3h40.4V232.3L386.3,232.3z"/>
			</g>
		</g>
	</g>
</g>
</svg>
