<?xml version="1.0" encoding="utf-8"?>
<!-- Generator: Adobe Illustrator 19.2.1, SVG Export Plug-In . SVG Version: 6.00 Build 0)  -->
<svg version="1.1" id="Calque_1" xmlns:sketch="http://www.bohemiancoding.com/sketch/ns"
	 xmlns="http://www.w3.org/2000/svg" xmlns:xlink="http://www.w3.org/1999/xlink" x="0px" y="0px" width="512px" height="512px"
	 viewBox="0 0 512 512" enable-background="new 0 0 512 512" xml:space="preserve">
<title>instagram</title>
<desc>Created with Sketch.</desc>
<g id="Page-1" sketch:type="MSPage">
	<g id="instagram" sketch:type="MSArtboardGroup">
		<g id="Shape" transform="translate(26.000000, 26.000000)" sketch:type="MSLayerGroup">
			<path sketch:type="MSShapeGroup" fill="#231F20" d="M406.9,194.6h-40c2.9,11.3,4.6,23.2,4.6,35.4c0,78.2-63.4,141.5-141.5,141.5
				c-78.2,0-141.5-63.4-141.5-141.5c0-12.2,1.7-24.1,4.7-35.4H53.1v194.7c0,9.8,7.9,17.7,17.8,17.7h318.4c9.8,0,17.8-7.9,17.8-17.7
				L406.9,194.6L406.9,194.6z M406.9,70.7c0-9.8-7.9-17.7-17.8-17.7h-53.1c-9.8,0-17.7,7.9-17.7,17.7v53.1c0,9.8,7.9,17.7,17.7,17.7
				h53.1c9.8,0,17.8-7.9,17.8-17.7V70.7L406.9,70.7z M230,141.5c-48.9,0-88.5,39.6-88.5,88.4s39.6,88.5,88.5,88.5
				s88.5-39.7,88.5-88.5C318.5,181.1,278.9,141.5,230,141.5L230,141.5z M406.9,460H53.1C23.7,460,0,436.3,0,406.9V53.1
				C0,23.7,23.7,0,53.1,0h353.8C436.3,0,460,23.7,460,53.1v353.8C460,436.3,436.3,460,406.9,460L406.9,460z"/>
		</g>
	</g>
</g>
</svg>
