<?xml version="1.0" encoding="utf-8"?>
<!-- Generator: Adobe Illustrator 19.2.1, SVG Export Plug-In . SVG Version: 6.00 Build 0)  -->
<svg version="1.1" id="Calque_1" xmlns:sketch="http://www.bohemiancoding.com/sketch/ns"
	 xmlns="http://www.w3.org/2000/svg" xmlns:xlink="http://www.w3.org/1999/xlink" x="0px" y="0px" width="512px" height="512px"
	 viewBox="0 0 512 512" enable-background="new 0 0 512 512" xml:space="preserve">
<title>linkedin</title>
<desc>Created with Sketch.</desc>
<g id="Page-1" sketch:type="MSPage">
	<g id="linkedin" sketch:type="MSArtboardGroup">
		<g id="Shape" transform="translate(26.000000, 26.000000)" sketch:type="MSLayerGroup">
			<path sketch:type="MSShapeGroup" d="M426,0h-392C15.2,0,0,14.8,0,33.1v393.7C0,445.2,15.2,460,33.9,460h392
				c18.8,0,34-14.8,34-33.2V33.1C460,14.8,444.6,0,426,0L426,0z M136.4,392H68.2V172.5h68.3V392L136.4,392z M102.3,142.4
				c-21.9,0-39.6-17.8-39.6-39.6s17.7-39.6,39.6-39.6c21.8,0,39.6,17.8,39.6,39.6C141.9,124.8,124.1,142.4,102.3,142.4L102.3,142.4z
				 M391.9,392h-68.2V285.3c0-25.5-0.5-58.2-35.4-58.2c-35.5,0-40.9,27.7-40.9,56.3V392h-68.2V172.5h65.4v30h0.9
				c9.1-17.3,31.4-35.4,64.6-35.4c69.1,0,81.8,45.4,81.8,104.6V392L391.9,392z"/>
		</g>
	</g>
</g>
</svg>
