<?xml version="1.0" encoding="utf-8"?>
<!-- Generator: Adobe Illustrator 19.2.1, SVG Export Plug-In . SVG Version: 6.00 Build 0)  -->
<svg version="1.1" id="Calque_1" xmlns:sketch="http://www.bohemiancoding.com/sketch/ns"
	 xmlns="http://www.w3.org/2000/svg" xmlns:xlink="http://www.w3.org/1999/xlink" x="0px" y="0px" width="512px" height="512px"
	 viewBox="0 0 512 512" enable-background="new 0 0 512 512" xml:space="preserve">
<title>pinterest</title>
<desc>Created with Sketch.</desc>
<g id="Page-1" sketch:type="MSPage">
	<g id="pinterest" sketch:type="MSArtboardGroup">
		<g id="Shape" transform="translate(26.000000, 26.000000)" sketch:type="MSLayerGroup">
			<path sketch:type="MSShapeGroup" fill="#010202" d="M230,0C102.9,0,0,102.9,0,230c0,97.4,60.6,180.7,146.2,214.2
				c-2-18.2-3.9-46.1,0.8-66c4.1-17.9,27-114.4,27-114.4s-6.9-13.8-6.9-34.1c0-32,18.6-55.8,41.6-55.8c19.6,0,29.1,14.7,29.1,32.4
				c0,19.7-12.6,49.2-19,76.5c-5.4,22.9,11.5,41.6,34,41.6c40.8,0,72.3-43.1,72.3-105.3c0-55.1-39.6-93.6-96-93.6
				c-65.4,0-103.9,49.1-103.9,99.8c0,19.8,7.6,40.9,17.1,52.5c1.8,2.3,2.1,4.2,1.6,6.6c-1.7,7.3-5.6,22.9-6.3,26.1
				c-1,4.2-3.3,5.1-7.7,3c-28.7-13.3-46.6-55.4-46.6-89.1c0-72.6,52.7-139.2,152-139.2c79.8,0,141.8,56.9,141.8,132.8
				c0,79.3-50,143.1-119.3,143.1c-23.3,0-45.2-12.1-52.7-26.4c0,0-11.5,43.9-14.4,54.6c-5.2,20-19.2,45-28.6,60.3
				c21.5,6.6,44.4,10.2,68.1,10.2c127.1,0,230-102.9,230-230C460,102.9,357.1,0,230,0L230,0z"/>
		</g>
	</g>
</g>
</svg>
