<?xml version="1.0" encoding="utf-8"?>
<!-- Generator: Adobe Illustrator 19.2.1, SVG Export Plug-In . SVG Version: 6.00 Build 0)  -->
<svg version="1.1" id="Calque_1" xmlns:sketch="http://www.bohemiancoding.com/sketch/ns"
	 xmlns="http://www.w3.org/2000/svg" xmlns:xlink="http://www.w3.org/1999/xlink" x="0px" y="0px" width="512px" height="512px"
	 viewBox="0 0 512 512" enable-background="new 0 0 512 512" xml:space="preserve">
<title>search</title>
<desc>Created with Sketch.</desc>
<g id="Page-1" sketch:type="MSPage">
	<g id="search" sketch:type="MSArtboardGroup">
		<g id="seach" transform="translate(47.000000, 46.000000)" sketch:type="MSLayerGroup">
			<path id="Shape" sketch:type="MSShapeGroup" d="M172,343.9c95,0,172-77,172-171.9S266.9,0,172,0S0,77,0,171.9S77,343.9,172,343.9
				L172,343.9z M172,263.7c-50.7,0-91.8-41.1-91.8-91.8s41.1-91.8,91.8-91.8s91.8,41.1,91.8,91.8S222.6,263.7,172,263.7z M239.3,298
				l110.3,110.3c15.7,15.7,41,15.7,56.7,0c15.7-15.7,15.7-41,0-56.7L296,241.3c-15.7-15.7-41-15.7-56.7,0S223.6,282.3,239.3,298z"/>
		</g>
	</g>
</g>
</svg>
