<?xml version="1.0" encoding="utf-8"?>
<!-- Generator: Adobe Illustrator 19.2.1, SVG Export Plug-In . SVG Version: 6.00 Build 0)  -->
<svg version="1.1" id="Calque_1" xmlns:sketch="http://www.bohemiancoding.com/sketch/ns"
	 xmlns="http://www.w3.org/2000/svg" xmlns:xlink="http://www.w3.org/1999/xlink" x="0px" y="0px" width="512px" height="512px"
	 viewBox="0 0 512 512" enable-background="new 0 0 512 512" xml:space="preserve">
<title>trash</title>
<desc>Created with Sketch.</desc>
<g id="Page-1" sketch:type="MSPage">
	<g id="trash" sketch:type="MSArtboardGroup">
		<g id="Shape" transform="translate(86.000000, 26.000000)" sketch:type="MSLayerGroup">
			<path sketch:type="MSShapeGroup" d="M298.9,155H40.9c-12,0-21.5,10.4-20.5,22.4l21.9,264.6c0.8,10.1,9.2,17.9,19.3,17.9h216.4
				c10.1,0,18.5-7.8,19.3-17.9l21.9-264.6C320.3,165.4,310.8,155,298.9,155L298.9,155z"/>
			<path sketch:type="MSShapeGroup" d="M170,119h149.7c13.3,0,22.3-12.3,18.6-25.1l-9.1-35c-2.1-7.1-7.5-11.7-14.9-13.2
				s-64.2-6.6-78-7.5c-6.2-0.4-10.1-5.6-11.1-8.6c-1-3.1-7.5-17.4-11.5-22.5c-1.8-2.4-10.1-7-43.8-7s-41.8,4.7-43.6,7
				c-4,5.2-10.5,19.4-11.5,22.5s-4.8,8.4-11.1,8.6c-13.8,0.8-70.6,6-78,7.5S13,51.8,10.9,58.9l-9.1,35C-2,106.6,7,119,20.3,119H170
				L170,119z"/>
		</g>
	</g>
</g>
</svg>
