<?xml version="1.0" encoding="utf-8"?>
<!-- Generator: Adobe Illustrator 19.2.1, SVG Export Plug-In . SVG Version: 6.00 Build 0)  -->
<svg version="1.1" id="Calque_1" xmlns:sketch="http://www.bohemiancoding.com/sketch/ns"
	 xmlns="http://www.w3.org/2000/svg" xmlns:xlink="http://www.w3.org/1999/xlink" x="0px" y="0px" width="512px" height="512px"
	 viewBox="0 0 512 512" enable-background="new 0 0 512 512" xml:space="preserve">
<title>twitter</title>
<desc>Created with Sketch.</desc>
<g id="Page-1" sketch:type="MSPage">
	<g id="twitter" sketch:type="MSArtboardGroup">
		<g id="Shape" transform="translate(26.000000, 70.000000)" sketch:type="MSLayerGroup">
			<path sketch:type="MSShapeGroup" d="M460,44.2c-16.9,7.5-35.1,12.6-54.1,14.8c19.5-11.7,34.3-30.1,41.4-52.1
				c-18.2,10.7-38.4,18.6-59.8,22.9C370.3,11.4,345.9,0,318.8,0c-52.1,0-94.2,42.1-94.2,94.1c0,7.3,0.8,14.6,2.5,21.5
				c-78.3-3.9-147.7-41.4-194.2-98.3c-8.1,13.9-12.8,30-12.8,47.3c0,32.7,16.6,61.4,41.9,78.3c-15.4-0.5-29.9-4.7-42.7-11.8v1.2
				c0,45.6,32.5,83.6,75.6,92.3c-7.9,2.1-16.3,3.3-24.8,3.3c-6.1,0-11.9-0.6-17.7-1.7c12,37.4,46.7,64.6,88,65.4
				c-32.2,25.2-72.8,40.3-117,40.3c-7.6,0-15.1-0.5-22.5-1.3c41.8,26.5,91.3,42.1,144.4,42.1c173.3,0,268-143.4,268-267.7
				c0-4-0.1-8.2-0.3-12.2C431.4,79.6,447.3,63,460,44.2L460,44.2L460,44.2z"/>
		</g>
	</g>
</g>
</svg>
