<?xml version="1.0" encoding="utf-8"?>
<!-- Generator: Adobe Illustrator 19.1.0, SVG Export Plug-In . SVG Version: 6.00 Build 0)  -->
<!DOCTYPE svg PUBLIC "-//W3C//DTD SVG 1.1//EN" "http://www.w3.org/Graphics/SVG/1.1/DTD/svg11.dtd">
<svg version="1.1" id="Calque_1" xmlns="http://www.w3.org/2000/svg" xmlns:xlink="http://www.w3.org/1999/xlink" x="0px" y="0px"
	 viewBox="0 0 512 512" style="enable-background:new 0 0 512 512;" xml:space="preserve">
<style type="text/css">
	.st0{fill:#231F20;}
</style>
<path class="st0" d="M334.2,242.3l116.7-116.7c16.1-16.1,20-41.9,6.7-60.4c-16.9-23.5-49.9-25.4-69.5-5.9L269.7,177.8
	c-7.6,7.6-19.8,7.6-27.4,0L125.6,61.1c-16.1-16.1-41.9-20-60.4-6.7c-23.5,16.9-25.4,49.9-5.9,69.5l118.5,118.4
	c7.6,7.6,7.6,19.8,0,27.4L61.1,386.4c-16.1,16.1-20,41.9-6.7,60.4c16.9,23.5,49.9,25.4,69.5,5.9l118.5-118.5
	c7.6-7.6,19.8-7.6,27.4,0l116.7,116.7c16.1,16.1,41.9,20,60.4,6.7c23.5-16.9,25.4-49.9,5.9-69.5L334.2,269.7
	C326.6,262.1,326.6,249.9,334.2,242.3z"/>
</svg>
