<?xml version="1.0" encoding="utf-8"?>
<!-- Generator: Adobe Illustrator 19.1.0, SVG Export Plug-In . SVG Version: 6.00 Build 0)  -->
<!DOCTYPE svg PUBLIC "-//W3C//DTD SVG 1.1//EN" "http://www.w3.org/Graphics/SVG/1.1/DTD/svg11.dtd">
<svg version="1.1" id="Calque_1" xmlns="http://www.w3.org/2000/svg" xmlns:xlink="http://www.w3.org/1999/xlink" x="0px" y="0px"
	 viewBox="0 0 512 512" style="enable-background:new 0 0 512 512;" xml:space="preserve">
<style type="text/css">
	.st0{fill:#010202;}
</style>
<g>
	<path class="st0" d="M478.4,6H33.6C18.4,6,6,18.4,6,33.6v444.8C6,493.6,18.4,506,33.6,506h239.5V312.4h-65.2v-75.5h65.2v-55.6
		c0-64.6,39.4-99.7,97.1-99.7c27.6,0,51.3,2.1,58.2,3V152l-40,0c-31.3,0-37.4,14.9-37.4,36.7v48.2h74.7l-9.7,75.5h-65V506h127.4
		c15.2,0,27.6-12.4,27.6-27.6V33.6C506,18.4,493.6,6,478.4,6z"/>
</g>
</svg>
