<?xml version="1.0" encoding="utf-8"?>
<!-- Generator: Adobe Illustrator 19.1.0, SVG Export Plug-In . SVG Version: 6.00 Build 0)  -->
<!DOCTYPE svg PUBLIC "-//W3C//DTD SVG 1.1//EN" "http://www.w3.org/Graphics/SVG/1.1/DTD/svg11.dtd">
<svg version="1.1" id="Calque_1" xmlns="http://www.w3.org/2000/svg" xmlns:xlink="http://www.w3.org/1999/xlink" x="0px" y="0px"
	 viewBox="0 0 512 512" style="enable-background:new 0 0 512 512;" xml:space="preserve">
<style type="text/css">
	.st0{fill-rule:evenodd;clip-rule:evenodd;fill:#231E1B;}
</style>
<path class="st0" d="M256,12C117.9,12,6,124,6,262.2c0,110.5,71.6,204.3,171,237.4c12.5,2.3,17.1-5.4,17.1-12.1
	c0-5.9-0.2-21.7-0.3-42.5c-69.5,15.1-84.2-33.5-84.2-33.5c-11.4-28.9-27.8-36.6-27.8-36.6c-22.7-15.5,1.7-15.2,1.7-15.2
	c25.1,1.8,38.3,25.8,38.3,25.8c22.3,38.2,58.5,27.2,72.8,20.8c2.3-16.2,8.7-27.2,15.9-33.4C154.9,366.4,96.5,345,96.5,249.1
	c0-27.3,9.7-49.6,25.7-67.1c-2.6-6.3-11.1-31.8,2.5-66.2c0,0,21-6.7,68.7,25.6c19.9-5.5,41.3-8.3,62.6-8.4
	c21.2,0.1,42.6,2.9,62.6,8.4c47.7-32.4,68.7-25.6,68.7-25.6c13.6,34.4,5.1,59.9,2.5,66.2c16,17.5,25.7,39.8,25.7,67.1
	c0,96.1-58.5,117.3-114.1,123.5c9,7.7,17,23,17,46.3c0,33.4-0.3,60.4-0.3,68.6c0,6.7,4.5,14.5,17.2,12
	C434.4,466.4,506,372.7,506,262.2C506,124,394.1,12,256,12z"/>
</svg>
