<?xml version="1.0" encoding="utf-8"?>
<!-- Generator: Adobe Illustrator 19.1.0, SVG Export Plug-In . SVG Version: 6.00 Build 0)  -->
<!DOCTYPE svg PUBLIC "-//W3C//DTD SVG 1.1//EN" "http://www.w3.org/Graphics/SVG/1.1/DTD/svg11.dtd">
<svg version="1.1" id="Calque_1" xmlns="http://www.w3.org/2000/svg" xmlns:xlink="http://www.w3.org/1999/xlink" x="0px" y="0px"
	 viewBox="0 0 512 512" style="enable-background:new 0 0 512 512;" xml:space="preserve">
<style type="text/css">
	.st0{fill:#010202;}
</style>
<g>
	<path class="st0" d="M227.8,299.4c-3.5-0.4-5.8-0.4-10.2-0.4c-4,0-28,0.9-46.6,7c-9.8,3.5-38.2,14-38.2,45
		c0,31.1,30.6,53.4,78.1,53.4c42.6,0,65.3-20.2,65.3-47.2C276.3,334.8,261.6,323,227.8,299.4z"/>
	<path class="st0" d="M251.9,185.4c0-31.5-19.1-80.5-55.9-80.5c-11.6,0-24,4.6-31.1,13.3c-7.5,9.2-9.8,22.1-9.8,33.5
		c0,29.3,17.3,77.8,55.5,77.8c11.1,0,23.1-6.3,30.2-13.3C251,206.2,251.9,193.3,251.9,185.4z"/>
	<path class="st0" d="M480,6H32C18.1,6.2,6.9,17,6,30.6v450.8c0.8,13.2,11.4,23.8,24.7,24.6h450.6c13.8-0.8,24.7-12.3,24.7-26.3
		V32.3C506,17.9,494.4,6.2,480,6z M188,423c-64.4,0-94.2-30.5-94.2-62.9c0-15.8,8-38,34.2-53.4c27.5-16.6,64.8-18.8,84.8-20.1
		c-6.2-7.9-13.3-16.2-13.3-29.7c0-7.4,2.2-11.8,4.4-17.1c-4.9,0.4-9.8,0.9-14.2,0.9c-47,0-73.7-34.6-73.7-68.6
		c0-20.1,6.3-43.9,25.3-60.1C166.7,91.5,199,89,223,89l92.5,0l-28.7,17.6h-26.3c10.2,8.3,30.4,24.4,30.4,57.6
		c0,32.3-18.6,47.7-37.3,62.1c-5.8,5.7-12.4,11.8-12.4,21.4c0,9.6,6.7,14.9,11.5,18.8l16,12.2c19.5,16.2,37.3,31.1,37.3,61.3
		C306,381.2,264.4,423,188,423z M425.9,259H382v43.9h-22.5V259h-43.9v-21.5h43.9v-43.9H382v43.9h43.9V259z"/>
</g>
</svg>
