<?xml version="1.0" encoding="utf-8"?>
<!-- Generator: Adobe Illustrator 19.1.0, SVG Export Plug-In . SVG Version: 6.00 Build 0)  -->
<!DOCTYPE svg PUBLIC "-//W3C//DTD SVG 1.1//EN" "http://www.w3.org/Graphics/SVG/1.1/DTD/svg11.dtd">
<svg version="1.1" id="Calque_1" xmlns="http://www.w3.org/2000/svg" xmlns:xlink="http://www.w3.org/1999/xlink" x="0px" y="0px"
	 viewBox="0 0 512 512" style="enable-background:new 0 0 512 512;" xml:space="preserve">
<style type="text/css">
	.st0{fill-rule:evenodd;clip-rule:evenodd;fill:#231F20;}
</style>
<path class="st0" d="M448.3,217.5h-43.5c3.2,12.3,5,25.2,5,38.5c0,85-68.9,153.8-153.8,153.8c-85,0-153.8-68.9-153.8-153.8
	c0-13.3,1.9-26.2,5.1-38.5H63.7v211.6c0,10.6,8.6,19.2,19.3,19.2h346.1c10.6,0,19.3-8.6,19.3-19.2V217.5z M448.3,82.9
	c0-10.6-8.6-19.2-19.3-19.2h-57.7c-10.6,0-19.2,8.6-19.2,19.2v57.7c0,10.6,8.6,19.2,19.2,19.2h57.7c10.6,0,19.3-8.6,19.3-19.2V82.9z
	 M256,159.8c-53.1,0-96.2,43-96.2,96.1c0,53.1,43,96.2,96.2,96.2s96.2-43.1,96.2-96.2C352.2,202.9,309.1,159.8,256,159.8 M448.3,506
	H63.7C31.8,506,6,480.2,6,448.3V63.7C6,31.8,31.8,6,63.7,6h384.6C480.2,6,506,31.8,506,63.7v384.6C506,480.2,480.2,506,448.3,506"/>
</svg>
