<?xml version="1.0" encoding="UTF-8" standalone="no"?>
<svg width="512px" height="512px" viewBox="0 0 512 512" version="1.1" xmlns="http://www.w3.org/2000/svg" xmlns:xlink="http://www.w3.org/1999/xlink" xmlns:sketch="http://www.bohemiancoding.com/sketch/ns">
    <!-- Generator: Sketch 3.3.3 (12072) - http://www.bohemiancoding.com/sketch -->
    <title>instagram</title>
    <desc>Created with Sketch.</desc>
    <defs></defs>
    <g id="Page-1" stroke="none" stroke-width="1" fill="none" fill-rule="evenodd" sketch:type="MSPage">
        <g id="instagram" sketch:type="MSArtboardGroup" fill="#231F20">
            <g sketch:type="MSLayerGroup" transform="translate(26.000000, 26.000000)" id="Shape">
                <path d="M406.916,194.58 L366.896,194.58 C369.84,205.896 371.496,217.764 371.496,230 C371.496,308.2 308.108,371.496 230,371.496 C151.8,371.496 88.504,308.108 88.504,230 C88.504,217.764 90.252,205.896 93.196,194.58 L53.084,194.58 L53.084,389.252 C53.084,399.004 60.996,406.916 70.84,406.916 L389.252,406.916 C399.004,406.916 407.008,399.004 407.008,389.252 L407.008,194.58 L406.916,194.58 Z M406.916,70.748 C406.916,60.996 399.004,53.084 389.16,53.084 L336.076,53.084 C326.324,53.084 318.412,60.996 318.412,70.748 L318.412,123.832 C318.412,133.584 326.324,141.496 336.076,141.496 L389.16,141.496 C398.912,141.496 406.916,133.584 406.916,123.832 L406.916,70.748 L406.916,70.748 Z M230,141.496 C181.148,141.496 141.496,181.056 141.496,229.908 C141.496,278.76 181.056,318.412 230,318.412 C278.944,318.412 318.504,278.76 318.504,229.908 C318.504,181.148 278.852,141.496 230,141.496 L230,141.496 Z M406.916,460 L53.084,460 C23.736,460 0,436.264 0,406.916 L0,53.084 C0,23.736 23.736,0 53.084,0 L406.916,0 C436.264,0 460,23.736 460,53.084 L460,406.916 C460,436.264 436.264,460 406.916,460 L406.916,460 Z" sketch:type="MSShapeGroup"></path>
            </g>
        </g>
    </g>
</svg>