<?xml version="1.0" encoding="utf-8"?>
<!-- Generator: Adobe Illustrator 19.1.0, SVG Export Plug-In . SVG Version: 6.00 Build 0)  -->
<!DOCTYPE svg PUBLIC "-//W3C//DTD SVG 1.1//EN" "http://www.w3.org/Graphics/SVG/1.1/DTD/svg11.dtd">
<svg version="1.1" id="linkedin" xmlns="http://www.w3.org/2000/svg" xmlns:xlink="http://www.w3.org/1999/xlink" x="0px" y="0px"
	 viewBox="0 0 512 512" style="enable-background:new 0 0 512 512;" xml:space="preserve">
<path d="M469,6H42.9C22.5,6,6,22.1,6,42v427.9C6,489.9,22.5,506,42.9,506H469c20.4,0,37-16.1,37-36.1V42C506,22.1,489.3,6,469,6z
	 M154.3,432.1H80.1V193.5h74.2V432.1z M117.2,160.8c-23.8,0-43-19.3-43-43c0-23.7,19.2-43,43-43c23.7,0,43,19.3,43,43
	C160.2,141.6,140.9,160.8,117.2,160.8z M432,432.1h-74.1v-116c0-27.7-0.5-63.3-38.5-63.3c-38.6,0-44.5,30.1-44.5,61.2v118.1h-74.1
	V193.5h71.1v32.6h1c9.9-18.8,34.1-38.5,70.2-38.5c75.1,0,88.9,49.4,88.9,113.7V432.1z"/>
</svg>
