<?xml version="1.0" encoding="UTF-8" standalone="no"?>
<svg width="512px" height="512px" viewBox="0 0 512 512" version="1.1" xmlns="http://www.w3.org/2000/svg" xmlns:xlink="http://www.w3.org/1999/xlink" xmlns:sketch="http://www.bohemiancoding.com/sketch/ns">
    <!-- Generator: Sketch 3.3.3 (12072) - http://www.bohemiancoding.com/sketch -->
    <title>pinterest</title>
    <desc>Created with Sketch.</desc>
    <defs></defs>
    <g id="Page-1" stroke="none" stroke-width="1" fill="none" fill-rule="evenodd" sketch:type="MSPage">
        <g id="pinterest" sketch:type="MSArtboardGroup" fill="#010202">
            <g sketch:type="MSLayerGroup" transform="translate(26.000000, 26.000000)" id="Shape">
                <path d="M230,0 C102.948,0 0,102.948 0,230 C0,327.428 60.628,410.688 146.188,444.176 C144.164,425.96 142.324,398.084 147.016,378.212 C151.156,360.272 173.972,263.856 173.972,263.856 C173.972,263.856 167.072,250.056 167.072,229.724 C167.072,197.708 185.656,173.88 208.656,173.88 C228.252,173.88 237.728,188.6 237.728,206.264 C237.728,225.952 225.124,255.484 218.684,282.808 C213.256,305.716 230.184,324.392 252.724,324.392 C293.572,324.392 325.036,281.244 325.036,219.052 C325.036,163.944 285.476,125.488 228.988,125.488 C163.576,125.488 125.12,174.616 125.12,225.308 C125.12,245.088 132.756,266.248 142.232,277.84 C144.072,280.14 144.348,282.072 143.796,284.464 C142.048,291.732 138.184,307.372 137.448,310.592 C136.436,314.824 134.136,315.652 129.72,313.628 C101.016,300.288 83.076,258.244 83.076,224.48 C83.076,151.892 135.792,85.284 235.06,85.284 C314.824,85.284 376.832,142.14 376.832,218.132 C376.832,297.436 326.876,361.192 257.508,361.192 C234.232,361.192 212.336,349.048 204.792,334.788 C204.792,334.788 193.292,378.672 190.44,389.436 C185.288,409.4 171.212,434.424 161.828,449.696 C183.356,456.32 206.264,459.908 229.908,459.908 C356.96,459.908 459.908,356.96 459.908,229.908 C460,102.948 357.052,0 230,0 L230,0 Z" sketch:type="MSShapeGroup"></path>
            </g>
        </g>
    </g>
</svg>