<?xml version="1.0" encoding="utf-8"?>
<!-- Generator: Adobe Illustrator 19.1.0, SVG Export Plug-In . SVG Version: 6.00 Build 0)  -->
<!DOCTYPE svg PUBLIC "-//W3C//DTD SVG 1.1//EN" "http://www.w3.org/Graphics/SVG/1.1/DTD/svg11.dtd">
<svg version="1.1" id="Calque_1" xmlns="http://www.w3.org/2000/svg" xmlns:xlink="http://www.w3.org/1999/xlink" x="0px" y="0px"
	 viewBox="0 0 512 512" style="enable-background:new 0 0 512 512;" xml:space="preserve">
<style type="text/css">
	.st0{fill:#010202;}
</style>
<g>
	<path class="st0" d="M256,6C117.9,6,6,117.9,6,256c0,105.9,65.9,196.4,158.9,232.8c-2.2-19.8-4.2-50.1,0.9-71.7
		c4.5-19.5,29.3-124.3,29.3-124.3s-7.5-15-7.5-37.1c0-34.8,20.2-60.7,45.2-60.7c21.3,0,31.6,16,31.6,35.2
		c0,21.4-13.7,53.5-20.7,83.2c-5.9,24.9,12.5,45.2,37,45.2c44.4,0,78.6-46.9,78.6-114.5c0-59.9-43-101.7-104.4-101.7
		c-71.1,0-112.9,53.4-112.9,108.5c0,21.5,8.3,44.5,18.6,57.1c2,2.5,2.3,4.6,1.7,7.2c-1.9,7.9-6.1,24.9-6.9,28.4
		c-1.1,4.6-3.6,5.5-8.4,3.3c-31.2-14.5-50.7-60.2-50.7-96.9c0-78.9,57.3-151.3,165.2-151.3c86.7,0,154.1,61.8,154.1,144.4
		c0,86.2-54.3,155.5-129.7,155.5c-25.3,0-49.1-13.2-57.3-28.7c0,0-12.5,47.7-15.6,59.4c-5.6,21.7-20.9,48.9-31.1,65.5
		c23.4,7.2,48.3,11.1,74,11.1c138.1,0,250-111.9,250-250C506,117.9,394.1,6,256,6z"/>
</g>
</svg>
