<?xml version="1.0" encoding="UTF-8" standalone="no"?>
<svg width="512px" height="512px" viewBox="0 0 512 512" version="1.1" xmlns="http://www.w3.org/2000/svg" xmlns:xlink="http://www.w3.org/1999/xlink" xmlns:sketch="http://www.bohemiancoding.com/sketch/ns">
    <!-- Generator: Sketch 3.3.3 (12072) - http://www.bohemiancoding.com/sketch -->
    <title>search</title>
    <desc>Created with Sketch.</desc>
    <defs></defs>
    <g id="Page-1" stroke="none" stroke-width="1" fill="none" fill-rule="evenodd" sketch:type="MSPage">
        <g id="search" sketch:type="MSArtboardGroup" fill="#000000">
            <g id="seach" sketch:type="MSLayerGroup" transform="translate(47.000000, 46.000000)">
                <path d="M171.955957,343.893337 C266.923977,343.893337 343.911914,266.910823 343.911914,171.946668 C343.911914,76.9825133 266.923977,0 171.955957,0 C76.9879365,0 0,76.9825133 0,171.946668 C0,266.910823 76.9879365,343.893337 171.955957,343.893337 L171.955957,343.893337 Z M171.955957,263.707243 C121.272229,263.707243 80.1860937,222.624002 80.1860937,171.946668 C80.1860937,121.269335 121.272229,80.1860937 171.955957,80.1860937 C222.639685,80.1860937 263.72582,121.269335 263.72582,171.946668 C263.72582,222.624002 222.639685,263.707243 171.955957,263.707243 Z M239.281185,297.993805 L349.557886,408.262738 C365.215747,423.919495 390.60126,423.918601 406.258017,408.260741 C421.914774,392.602881 421.91388,367.217367 406.25602,351.56061 L295.979319,241.291677 C280.321459,225.63492 254.935945,225.635814 239.279188,241.293674 C223.622431,256.951534 223.623325,282.337048 239.281185,297.993805 Z" id="Shape" sketch:type="MSShapeGroup"></path>
            </g>
        </g>
    </g>
</svg>