<?xml version="1.0" encoding="utf-8"?>
<!-- Generator: Adobe Illustrator 19.1.0, SVG Export Plug-In . SVG Version: 6.00 Build 0)  -->
<!DOCTYPE svg PUBLIC "-//W3C//DTD SVG 1.1//EN" "http://www.w3.org/Graphics/SVG/1.1/DTD/svg11.dtd">
<svg version="1.1" id="Calque_1" xmlns="http://www.w3.org/2000/svg" xmlns:xlink="http://www.w3.org/1999/xlink" x="0px" y="0px"
	 viewBox="0 0 512 512" style="enable-background:new 0 0 512 512;" xml:space="preserve">
<path d="M397,174.5H114.8c-13.1,0-23.5,11.3-22.4,24.4l24,287.6c0.9,11,10.1,19.5,21.1,19.5h236.8c11,0,20.2-8.5,21.1-19.5l24-287.6
	C420.5,185.8,410.1,174.5,397,174.5z"/>
<path d="M256,135.3h163.8c14.5,0,24.4-13.4,20.3-27.3l-10-38c-2.3-7.7-8.2-12.7-16.3-14.3c-8.1-1.6-70.2-7.2-85.3-8.1
	c-6.8-0.4-11-6.1-12.1-9.4c-1.1-3.4-8.2-18.9-12.6-24.5c-2-2.6-11.1-7.6-47.9-7.6c-36.8,0-45.7,5.1-47.7,7.6
	c-4.4,5.6-11.5,21.1-12.6,24.5c-1.1,3.4-5.3,9.1-12.1,9.4c-15.1,0.9-77.2,6.5-85.3,8.1c-8.1,1.6-14,6.6-16.3,14.3l-10,38
	c-4.1,13.9,5.8,27.3,20.3,27.3H256z"/>
</svg>
