<?xml version="1.0" encoding="utf-8"?>
<!-- Generator: Adobe Illustrator 19.1.0, SVG Export Plug-In . SVG Version: 6.00 Build 0)  -->
<!DOCTYPE svg PUBLIC "-//W3C//DTD SVG 1.1//EN" "http://www.w3.org/Graphics/SVG/1.1/DTD/svg11.dtd">
<svg version="1.1" id="Calque_1" xmlns="http://www.w3.org/2000/svg" xmlns:xlink="http://www.w3.org/1999/xlink" x="0px" y="0px"
	 viewBox="0 0 512 512" style="enable-background:new 0 0 512 512;" xml:space="preserve">
<style type="text/css">
	.st0{fill:#3DA9E1;}
</style>
<path class="st0" d="M506,101.1c-18.4,8.2-38.2,13.7-58.9,16.1c21.2-12.7,37.4-32.8,45.1-56.7c-19.8,11.7-41.8,20.3-65.1,24.9
	C408.3,65.4,381.7,53,352.2,53c-56.7,0-102.6,45.9-102.6,102.5c0,8,0.9,15.9,2.7,23.4C167,174.6,91.4,133.8,40.8,71.8
	c-8.8,15.1-13.9,32.7-13.9,51.5c0,35.6,18.1,66.9,45.6,85.3c-16.8-0.5-32.6-5.1-46.5-12.8c0,0.4,0,0.9,0,1.3
	c0,49.7,35.4,91.1,82.3,100.5c-8.6,2.3-17.7,3.6-27,3.6c-6.6,0-13-0.6-19.3-1.8c13.1,40.7,50.9,70.4,95.8,71.2
	c-35.1,27.5-79.3,43.9-127.4,43.9c-8.3,0-16.4-0.5-24.5-1.4C51.4,442,105.3,459,163.2,459c188.7,0,291.9-156.2,291.9-291.6
	c0-4.4-0.1-8.9-0.3-13.3C474.9,139.7,492.2,121.6,506,101.1L506,101.1z"/>
</svg>
