<?xml version="1.0" encoding="utf-8"?>
<!-- Generator: Adobe Illustrator 19.1.0, SVG Export Plug-In . SVG Version: 6.00 Build 0)  -->
<!DOCTYPE svg PUBLIC "-//W3C//DTD SVG 1.1//EN" "http://www.w3.org/Graphics/SVG/1.1/DTD/svg11.dtd">
<svg version="1.1" id="Calque_1" xmlns="http://www.w3.org/2000/svg" xmlns:xlink="http://www.w3.org/1999/xlink" x="0px" y="0px"
	 viewBox="0 0 512 512" style="enable-background:new 0 0 512 512;" xml:space="preserve">
<style type="text/css">
	.st0{fill:#292A29;}
</style>
<g id="Lozenge">
	<g>
		<path class="st0" d="M501,155.9c0,0-4.9-34.5-19.9-49.7c-19-19.9-40.3-20-50.1-21.2C361.1,80,256.1,80,256.1,80h-0.2
			c0,0-105,0-174.9,5.1c-9.8,1.2-31.1,1.3-50.1,21.2c-15,15.2-19.9,49.7-19.9,49.7s-5,40.5-5,81v38c0,40.5,5,81,5,81
			s4.9,34.5,19.9,49.7c19,19.9,44,19.3,55.1,21.4c40,3.8,170,5,170,5s105.1-0.2,175-5.2c9.8-1.2,31.1-1.3,50.1-21.2
			c15-15.2,19.9-49.7,19.9-49.7s5-40.5,5-81v-38C506,196.4,501,155.9,501,155.9z M204.4,320.9l0-140.6l135.1,70.6L204.4,320.9z"/>
	</g>
</g>
</svg>
