<?xml version="1.0" encoding="utf-8"?>
<!-- Generator: Adobe Illustrator 19.1.0, SVG Export Plug-In . SVG Version: 6.00 Build 0)  -->
<svg version="1.1" id="Calque_1" xmlns="http://www.w3.org/2000/svg" xmlns:xlink="http://www.w3.org/1999/xlink" x="0px" y="0px"
	 viewBox="0 0 200 80" style="enable-background:new 0 0 200 80;" xml:space="preserve">
<style type="text/css">
	.st0{fill:#FFFFFF;}
</style>
<g>
	<path class="st0" d="M87.5,30.1l-0.2,1.7c-1.2,0.2-1.9,0.7-2,1.5l-1.7,13.3c-0.1,0.9,0.4,1.2,1.6,1.4L85,49.8h-7.6l0.2-1.7
		c1.2-0.2,2-0.7,2.1-1.5l0.7-5.6h-7.6l-0.7,5.7c-0.1,0.9,0.4,1.2,1.6,1.4l-0.2,1.7h-7.6l0.2-1.7c1.2-0.2,2-0.7,2.1-1.5l1.7-13.3
		c0.1-0.8-0.5-1.2-1.7-1.4l0.2-1.7h7.6l-0.2,1.7c-1.2,0.2-1.9,0.7-2,1.5l-0.7,5.4h7.6l0.7-5.5c0.1-0.8-0.5-1.2-1.7-1.4l0.2-1.7H87.5
		z"/>
	<path class="st0" d="M95.2,43.6l-3.7,0.5c0,1.3,0.3,3.7,3.1,3.7c2,0,2.9-0.8,3.9-1.7l1,1.3c-0.9,1-2.7,2.6-5.4,2.6
		c-3.5,0-6.2-2.4-6.2-6.3c0-3.5,2.5-8.5,7.7-8.5c3.1,0,5.2,2.3,5.2,5C100.6,42.5,99,43.1,95.2,43.6z M97.5,39.6c0-1.4-0.7-2.4-2-2.4
		c-2.8,0-3.8,2.2-4,4.9l4.7-0.6C97.3,41.3,97.5,40.6,97.5,39.6z"/>
	<path class="st0" d="M109,46.6l-0.7,2.1c-1.1,1.1-2.2,1.1-2.9,1.1c-1.6,0-2.4-1-2.2-2.5l1.8-15.1c0.1-1.1-0.5-1.4-2-1.4l0.2-1.2
		c2.2,0,4-0.2,5.8-0.6l-2.1,17.1C106.6,47.1,107.4,47.4,109,46.6z"/>
	<path class="st0" d="M117.8,46.6l-0.7,2.1c-1.1,1.1-2.2,1.1-2.9,1.1c-1.6,0-2.4-1-2.2-2.5l1.8-15.1c0.1-1.1-0.5-1.4-2-1.4l0.2-1.2
		c2.2,0,4-0.2,5.8-0.6l-2.1,17.1C115.4,47.1,116.2,47.4,117.8,46.6z"/>
	<path class="st0" d="M133.3,41.3c0,3.8-2.6,8.6-7.7,8.6c-3.1,0-6-2.3-6-6.3c0-3.6,2.5-8.5,7.7-8.5
		C130.3,35.2,133.3,37.4,133.3,41.3z M127,37.2c-3,0-3.6,3.7-3.6,6.3c0,2.8,1.1,4.3,2.6,4.3c3.1,0,3.6-3.4,3.6-6.2
		C129.5,38.7,128.5,37.2,127,37.2z"/>
</g>
</svg>
